<?xml version="1.0" encoding="UTF-8" standalone="no"?>
<!-- Created with Inkscape (http://www.inkscape.org/) -->

<svg
   width="210mm"
   height="297mm"
   viewBox="0 0 210 297"
   version="1.1"
   id="svg1"
   inkscape:version="1.3.2 (091e20e, 2023-11-25, custom)"
   sodipodi:docname="CaixaStick2.0.svg"
   xmlns:inkscape="http://www.inkscape.org/namespaces/inkscape"
   xmlns:sodipodi="http://sodipodi.sourceforge.net/DTD/sodipodi-0.dtd"
   xmlns="http://www.w3.org/2000/svg"
   xmlns:svg="http://www.w3.org/2000/svg">
  <sodipodi:namedview
     id="namedview1"
     pagecolor="#ffffff"
     bordercolor="#000000"
     borderopacity="0.25"
     inkscape:showpageshadow="2"
     inkscape:pageopacity="0.0"
     inkscape:pagecheckerboard="0"
     inkscape:deskcolor="#d1d1d1"
     inkscape:document-units="mm"
     inkscape:zoom="1.3843855"
     inkscape:cx="211.28508"
     inkscape:cy="277.01821"
     inkscape:window-width="1920"
     inkscape:window-height="1009"
     inkscape:window-x="-8"
     inkscape:window-y="-8"
     inkscape:window-maximized="1"
     inkscape:current-layer="layer1" />
  <defs
     id="defs1" />
  <g
     inkscape:label="Camada 1"
     inkscape:groupmode="layer"
     id="layer1">
    <path
       id="rect1"
       style="fill:none;stroke:#000000;stroke-width:1;stroke-dasharray:none;stroke-dashoffset:0;stroke-opacity:1"
       d="M 45.7724 6.4011597 L 44.848425 10.447941 L 35.282601 10.447941 L 35.282601 35.930623 L 34.790125 35.930623 L 31.6637 30.515967 L 13.061735 30.651359 L 10.014376 35.930623 L 8.9488078 35.930623 L 8.9488078 110.9307 L 9.3606689 110.9307 L 12.49071 116.35155 L 31.092676 116.48695 L 34.300749 110.9307 L 35.359082 110.9307 L 35.359082 136.89294 L 45.693852 136.89294 L 44.778145 140.90354 L 51.779268 140.86169 L 50.872864 136.89294 L 61.359045 136.89294 L 61.359045 110.9307 L 61.772457 110.9307 L 64.96606 116.46163 L 83.567509 116.59702 L 86.838627 110.9307 L 112.5492 110.9307 L 112.5492 110.97359 L 112.62362 110.9307 L 112.94918 110.9307 L 112.94918 110.74259 L 116.8833 108.4709 L 117.43676 37.172925 L 112.94918 35.970414 L 112.94918 35.930623 L 112.79983 35.930623 L 112.5492 35.863444 L 112.5492 35.930623 L 86.479993 35.930623 L 83.217143 30.279289 L 64.615694 30.414164 L 61.430876 35.930623 L 61.282564 35.930623 L 61.282564 10.447941 L 51.717773 10.447941 L 50.794316 6.4011597 L 45.7724 6.4011597 z " />
    <path
       style="fill:none;stroke:#000000;stroke-width:0.600001;stroke-dasharray:0.60000098,1.80000293;stroke-dashoffset:0"
       d="M 35.309362,110.80164 V 35.882722"
       id="path1" />
    <path
       style="fill:none;stroke:#000000;stroke-width:0.600001;stroke-dasharray:0.600001, 1.8;stroke-dashoffset:0"
       d="M 86.796083,111.06956 V 36.150643"
       id="path1-8" />
    <path
       style="fill:none;stroke:#000000;stroke-width:0.600001;stroke-dasharray:0.600001, 1.8;stroke-dashoffset:0"
       d="M 61.406347,110.88817 V 35.969256"
       id="path1-8-6" />
    <path
       style="fill:none;stroke:#000000;stroke-width:0.600001;stroke-dasharray:none;stroke-dashoffset:0"
       d="m 96.66673,108.096 h 6.78475"
       id="path3" />
    <path
       style="fill:none;stroke:#000000;stroke-width:0.600001;stroke-dasharray:none;stroke-dashoffset:0"
       d="m 96.66673,38.958 h 6.78475"
       id="path3-1" />
    <path
       style="fill:none;stroke:#000000;stroke-width:0.600001;stroke-dasharray:0.60000098,1.80000293;stroke-dashoffset:0"
       d="m 8.8518028,110.81646 52.2999642,0.20272"
       id="path5" />
    <path
       style="fill:none;stroke:#000000;stroke-width:0.600001;stroke-dasharray:0.60000098,1.80000293;stroke-dashoffset:0"
       d="m 45.582046,136.8417 h 5.446911"
       id="path6" />
    <path
       style="fill:none;stroke:#000000;stroke-width:0.600001;stroke-dasharray:0.600001, 1.8;stroke-dashoffset:0"
       d="M 9.2572289,35.745068 H 86.355755"
       id="path7" />
    <path
       style="fill:none;stroke:#000000;stroke-width:0.600001;stroke-dasharray:0.600001, 1.8;stroke-dashoffset:0"
       d="m 44.865348,10.368243 h 6.880307"
       id="path8" />
    <path
       style="fill:none;stroke:#000000;stroke-width:0.600001;stroke-dasharray:0.600001, 1.8;stroke-dashoffset:0"
       d="M 61.455836,110.95161 H 86.896325"
       id="path9" />
    <path
       style="fill:none;stroke:#000000;stroke-width:1;stroke-dasharray:1,2;stroke-dashoffset:0"
       d="M 112.91117,110.88403 112.77603,35.880209"
       id="path4" />
  </g>
</svg>
